<?xml version="1.0" ?><svg viewBox="0 0 22.494 22.461" xmlns="http://www.w3.org/2000/svg"><g data-name="Layer 2" id="Layer_2"><g data-name="Layer 1" id="Layer_1-2"><path d="M22.494,14.4a4.884,4.884,0,1,0-7.952,3.8V22.12a.34.34,0,0,0,.493.3l2.575-1.287,2.573,1.287a.341.341,0,0,0,.494-.3V18.2A4.877,4.877,0,0,0,22.494,14.4Zm-9.088,0a4.2,4.2,0,0,1,8.407,0A4.2,4.2,0,0,1,13.406,14.4ZM20,21.569l-2.233-1.117a.341.341,0,0,0-.3,0l-2.233,1.117v-2.91a4.9,4.9,0,0,0,4.771,0ZM15.88,14.988l-.291,1.7a.34.34,0,0,0,.494.359l1.527-.8,1.526.8a.341.341,0,0,0,.5-.359l-.292-1.7,1.235-1.2a.341.341,0,0,0-.189-.581l-1.706-.248-.764-1.547a.356.356,0,0,0-.612,0l-.762,1.547-1.707.248a.341.341,0,0,0-.189.581Zm.936-1.384c.277.021.555-.87.794-1.275.241.41.514,1.294.793,1.275l1.2.174-.869.847c-.239.147.067,1.055.107,1.5-.384-.16-1.177-.746-1.391-.564l-1.074.564.205-1.2c.107-.258-.678-.817-.967-1.149ZM13.123,19.28a.341.341,0,0,0,0-.682H.681V5.652H4.6V8.031a.341.341,0,0,0,.682,0V5.652h7.5V8.031a.341.341,0,1,0,.682,0V5.652h3.8V8.038a.341.341,0,0,0,.681,0V5.311a.341.341,0,0,0-.34-.341H13.464a4.46,4.46,0,1,0-8.862,0H.341A.341.341,0,0,0,0,5.311V19.848a2.616,2.616,0,0,0,2.613,2.613H13.065a.341.341,0,0,0,0-.681H2.613a2.049,2.049,0,0,1-1.932-2.5ZM5.284,4.4a3.768,3.768,0,1,1,7.5.574h-7.5Zm9.543,3.635a1.7,1.7,0,0,1-3.409,0,.341.341,0,0,1,.682,0,1.023,1.023,0,0,0,2.045,0A.341.341,0,0,1,14.827,8.031Zm-8.18,0a1.7,1.7,0,0,1-3.408,0,.341.341,0,1,1,.681,0,1.023,1.023,0,0,0,2.045,0A.341.341,0,0,1,6.647,8.031Z" data-name="best buy" id="best_buy"/></g></g></svg>