<?xml version="1.0" ?><svg viewBox="0 0 64 64" xmlns="http://www.w3.org/2000/svg"><defs><style>.cls-1{fill:#dbeffc;}.cls-2{fill:none;}.cls-2,.cls-3,.cls-5,.cls-6,.cls-7{stroke:#4c241d;stroke-linecap:round;stroke-linejoin:round;stroke-width:2px;}.cls-3{fill:#b5a19c;}.cls-4{fill:#4c241d;}.cls-5{fill:#fc8c29;}.cls-6{fill:#a9ba5a;}.cls-7{fill:#d6d6d6;}</style></defs><g id="proc"><circle class="cls-1" cx="25" cy="26" r="23"/><line class="cls-2" x1="11" x2="11" y1="13" y2="16"/><line class="cls-2" x1="15" x2="15" y1="13" y2="16"/><line class="cls-2" x1="19" x2="19" y1="13" y2="16"/><line class="cls-2" x1="23" x2="23" y1="13" y2="16"/><line class="cls-2" x1="27" x2="27" y1="13" y2="16"/><line class="cls-2" x1="31" x2="31" y1="13" y2="16"/><line class="cls-2" x1="35" x2="35" y1="13" y2="16"/><line class="cls-2" x1="39" x2="39" y1="13" y2="16"/><line class="cls-2" x1="11" x2="11" y1="56" y2="59"/><line class="cls-2" x1="15" x2="15" y1="56" y2="59"/><line class="cls-2" x1="19" x2="19" y1="56" y2="59"/><line class="cls-2" x1="23" x2="23" y1="56" y2="59"/><line class="cls-2" x1="27" x2="27" y1="56" y2="59"/><line class="cls-2" x1="31" x2="31" y1="56" y2="59"/><line class="cls-2" x1="35" x2="35" y1="56" y2="59"/><line class="cls-2" x1="39" x2="39" y1="56" y2="59"/><line class="cls-2" x1="43" x2="43" y1="56" y2="59"/><line class="cls-2" x1="47" x2="47" y1="56" y2="59"/><line class="cls-2" x1="51" x2="51" y1="56" y2="59"/><line class="cls-2" x1="54" x2="51" y1="28" y2="28"/><line class="cls-2" x1="54" x2="51" y1="32" y2="32"/><line class="cls-2" x1="54" x2="51" y1="36" y2="36"/><line class="cls-2" x1="54" x2="51" y1="40" y2="40"/><line class="cls-2" x1="54" x2="51" y1="44" y2="44"/><line class="cls-2" x1="54" x2="51" y1="48" y2="48"/><line class="cls-2" x1="54" x2="51" y1="52" y2="52"/><line class="cls-2" x1="54" x2="51" y1="56" y2="56"/><line class="cls-2" x1="11" x2="8" y1="16" y2="16"/><line class="cls-2" x1="11" x2="8" y1="20" y2="20"/><line class="cls-2" x1="11" x2="8" y1="24" y2="24"/><line class="cls-2" x1="11" x2="8" y1="28" y2="28"/><line class="cls-2" x1="11" x2="8" y1="32" y2="32"/><line class="cls-2" x1="11" x2="8" y1="36" y2="36"/><line class="cls-2" x1="11" x2="8" y1="40" y2="40"/><line class="cls-2" x1="11" x2="8" y1="44" y2="44"/><line class="cls-2" x1="11" x2="8" y1="48" y2="48"/><line class="cls-2" x1="11" x2="8" y1="52" y2="52"/><line class="cls-2" x1="11" x2="8" y1="56" y2="56"/><rect class="cls-3" height="40" width="40" x="11" y="16"/><line class="cls-2" x1="5" x2="8" y1="7" y2="10"/><line class="cls-2" x1="8" x2="5" y1="7" y2="10"/><circle class="cls-4" cx="15.3829" cy="8.3776" r="1.0691"/><circle class="cls-4" cx="21.3829" cy="4.3776" r="1.0691"/><rect class="cls-5" height="34" rx="2.1603" width="34" x="14" y="19"/><circle class="cls-4" cx="20" cy="25" r="1"/><circle class="cls-4" cx="42" cy="25" r="1"/><circle class="cls-4" cx="20" cy="47" r="1"/><circle class="cls-4" cx="42" cy="47" r="1"/><circle class="cls-6" cx="51.9999" cy="15" r="10"/><line class="cls-2" x1="56" x2="48" y1="10" y2="20"/><circle class="cls-2" cx="48.5" cy="11.5" r="1.5"/><circle class="cls-2" cx="55.5" cy="18.5" r="1.5"/><rect class="cls-7" height="12" rx="0.9049" width="12" x="25" y="30"/><line class="cls-2" x1="31" x2="31" y1="28" y2="30"/><line class="cls-2" x1="34" x2="34" y1="28" y2="30"/><line class="cls-2" x1="28" x2="28" y1="28" y2="30"/><line class="cls-2" x1="31" x2="31" y1="42" y2="44"/><line class="cls-2" x1="34" x2="34" y1="42" y2="44"/><line class="cls-2" x1="28" x2="28" y1="42" y2="44"/><line class="cls-2" x1="39" x2="37" y1="36" y2="36"/><line class="cls-2" x1="39" x2="37" y1="39" y2="39"/><line class="cls-2" x1="39" x2="37" y1="33" y2="33"/><line class="cls-2" x1="25" x2="23" y1="36" y2="36"/><line class="cls-2" x1="25" x2="23" y1="39" y2="39"/><line class="cls-2" x1="25" x2="23" y1="33" y2="33"/></g></svg>